<svg width="1200" height="900" viewBox="0 0 1200 900" fill="none" xmlns="http://www.w3.org/2000/svg">
  <rect width="1200" height="900" fill="#F2F5F9"/>
  <rect width="1200" height="900" fill="url(#surface)"/>
  <g opacity="0.12">
    <path d="M115 0V900" stroke="#27364A" stroke-width="2"/>
    <path d="M228 0V900" stroke="#27364A" stroke-width="2"/>
    <path d="M341 0V900" stroke="#27364A" stroke-width="2"/>
    <path d="M454 0V900" stroke="#27364A" stroke-width="2"/>
    <path d="M567 0V900" stroke="#27364A" stroke-width="2"/>
    <path d="M680 0V900" stroke="#27364A" stroke-width="2"/>
    <path d="M793 0V900" stroke="#27364A" stroke-width="2"/>
    <path d="M906 0V900" stroke="#27364A" stroke-width="2"/>
    <path d="M1019 0V900" stroke="#27364A" stroke-width="2"/>
  </g>
  <ellipse cx="630" cy="496" rx="300" ry="267" fill="#0A1422"/>
  <ellipse cx="630" cy="496" rx="244" ry="214" fill="url(#metalOuter)"/>
  <ellipse cx="630" cy="496" rx="197" ry="171" fill="#F4F7FB"/>
  <ellipse cx="630" cy="496" rx="150" ry="128" fill="url(#metalInner)"/>
  <ellipse cx="630" cy="496" rx="87" ry="75" fill="#D7DEE7"/>
  <ellipse cx="630" cy="496" rx="39" ry="33" fill="#5D6B7F"/>

  <g opacity="0.95">
    <path d="M435 362C502 321 559 307 630 307C705 307 766 323 825 361" stroke="#E03030" stroke-width="18" stroke-linecap="round"/>
    <path d="M400 428C489 386 560 372 630 372C706 372 784 389 859 426" stroke="#BCC8D5" stroke-width="12" stroke-linecap="round" opacity="0.9"/>
    <path d="M381 507C469 467 550 450 630 450C716 450 797 468 882 505" stroke="#1C3048" stroke-width="11" stroke-linecap="round" opacity="0.9"/>
    <path d="M407 594C484 555 553 537 630 537C710 537 781 556 852 593" stroke="#A6B7C8" stroke-width="11" stroke-linecap="round" opacity="0.92"/>
    <path d="M450 667C515 636 568 624 630 624C696 624 748 636 810 666" stroke="#E7EDF4" stroke-width="13" stroke-linecap="round" opacity="0.88"/>
  </g>

  <g opacity="0.82">
    <circle cx="934" cy="212" r="110" fill="url(#hotspot)"/>
    <circle cx="334" cy="706" r="146" fill="url(#coldspot)"/>
  </g>

  <g opacity="0.68">
    <rect x="124" y="114" width="148" height="12" rx="6" fill="#24374E"/>
    <rect x="124" y="142" width="104" height="4" rx="2" fill="#8FA0B3"/>
    <text x="124" y="186" fill="#7B8DA0" font-family="Arial, sans-serif" font-size="18" letter-spacing="3">MACRO COMPONENT / RING STUDY</text>
    <text x="124" y="212" fill="#A93034" font-family="Arial, sans-serif" font-size="16" letter-spacing="6">DETAIL 02</text>
  </g>

  <defs>
    <linearGradient id="surface" x1="600" y1="0" x2="600" y2="900" gradientUnits="userSpaceOnUse">
      <stop stop-color="#F7F9FC"/>
      <stop offset="1" stop-color="#E7EDF4"/>
    </linearGradient>
    <linearGradient id="metalOuter" x1="394" y1="310" x2="865" y2="707" gradientUnits="userSpaceOnUse">
      <stop stop-color="#495A70"/>
      <stop offset="0.5" stop-color="#A2B1C0"/>
      <stop offset="1" stop-color="#2D3D53"/>
    </linearGradient>
    <linearGradient id="metalInner" x1="480" y1="372" x2="777" y2="622" gradientUnits="userSpaceOnUse">
      <stop stop-color="#50637A"/>
      <stop offset="0.58" stop-color="#E6EDF4"/>
      <stop offset="1" stop-color="#71839A"/>
    </linearGradient>
    <radialGradient id="hotspot" cx="0" cy="0" r="1" gradientUnits="userSpaceOnUse" gradientTransform="translate(934 212) rotate(90) scale(110)">
      <stop stop-color="#E03030" stop-opacity="0.35"/>
      <stop offset="1" stop-color="#E03030" stop-opacity="0"/>
    </radialGradient>
    <radialGradient id="coldspot" cx="0" cy="0" r="1" gradientUnits="userSpaceOnUse" gradientTransform="translate(334 706) rotate(90) scale(146)">
      <stop stop-color="#0F223A" stop-opacity="0.22"/>
      <stop offset="1" stop-color="#0F223A" stop-opacity="0"/>
    </radialGradient>
  </defs>
</svg>
